<svg width="162" height="38" viewBox="0 0 162 38" fill="none" xmlns="http://www.w3.org/2000/svg">
<g filter="url(#filter0_d_27_763)">
<mask id="path-1-outside-1_27_763" maskUnits="userSpaceOnUse" x="4" y="-1" width="155" height="32" fill="black">
<rect fill="white" x="4" y="-1" width="155" height="32"/>
<path d="M15.528 29.36C13.992 29.36 12.528 29.12 11.136 28.64C9.744 28.16 8.532 27.488 7.5 26.624C6.468 25.76 5.712 24.764 5.232 23.636C4.992 23.132 4.992 22.664 5.232 22.232C5.496 21.8 5.928 21.524 6.528 21.404C6.96 21.308 7.38 21.38 7.788 21.62C8.22 21.836 8.544 22.172 8.76 22.628C9.048 23.228 9.516 23.78 10.164 24.284C10.836 24.788 11.64 25.196 12.576 25.508C13.512 25.82 14.496 25.976 15.528 25.976C16.68 25.976 17.736 25.796 18.696 25.436C19.68 25.076 20.472 24.56 21.072 23.888C21.672 23.192 21.972 22.34 21.972 21.332C21.972 20.06 21.468 18.92 20.46 17.912C19.476 16.904 17.844 16.28 15.564 16.04C12.588 15.752 10.248 14.876 8.544 13.412C6.84 11.948 5.988 10.136 5.988 7.976C5.988 6.392 6.432 5.048 7.32 3.944C8.208 2.84 9.408 2 10.92 1.424C12.456 0.847999 14.16 0.559999 16.032 0.559999C17.496 0.559999 18.768 0.763999 19.848 1.172C20.952 1.58 21.912 2.144 22.728 2.864C23.544 3.584 24.252 4.436 24.852 5.42C25.188 5.948 25.32 6.452 25.248 6.932C25.2 7.388 24.972 7.748 24.564 8.012C24.108 8.3 23.616 8.36 23.088 8.192C22.56 8.024 22.164 7.712 21.9 7.256C21.516 6.56 21.048 5.972 20.496 5.492C19.944 5.012 19.296 4.64 18.552 4.376C17.808 4.088 16.932 3.944 15.924 3.944C14.148 3.92 12.66 4.256 11.46 4.952C10.26 5.624 9.66 6.668 9.66 8.084C9.66 8.804 9.84 9.5 10.2 10.172C10.584 10.82 11.268 11.384 12.252 11.864C13.26 12.344 14.7 12.68 16.572 12.872C19.428 13.16 21.648 14.036 23.232 15.5C24.84 16.94 25.644 18.848 25.644 21.224C25.644 22.592 25.356 23.78 24.78 24.788C24.228 25.796 23.472 26.648 22.512 27.344C21.576 28.016 20.496 28.52 19.272 28.856C18.072 29.192 16.824 29.36 15.528 29.36ZM33.2572 29C32.7532 29 32.3092 28.82 31.9252 28.46C31.5652 28.1 31.3852 27.656 31.3852 27.128V2.756C31.3852 2.228 31.5652 1.784 31.9252 1.424C32.3092 1.064 32.7532 0.883999 33.2572 0.883999C33.7852 0.883999 34.2292 1.064 34.5892 1.424C34.9492 1.784 35.1292 2.228 35.1292 2.756V13.556L47.0452 1.64C47.3332 1.352 47.5972 1.16 47.8372 1.064C48.0772 0.943999 48.3292 0.883999 48.5932 0.883999C49.1932 0.883999 49.6252 1.064 49.8892 1.424C50.1532 1.784 50.2492 2.216 50.1772 2.72C50.1052 3.2 49.8772 3.644 49.4932 4.052L40.3132 13.268L49.6732 26.012C49.9612 26.42 50.0812 26.864 50.0332 27.344C49.9852 27.8 49.8172 28.196 49.5292 28.532C49.2412 28.844 48.8572 29 48.3772 29C47.7052 29 47.1892 28.736 46.8292 28.208L37.7212 15.86L35.1292 18.452V27.128C35.1292 27.656 34.9492 28.1 34.5892 28.46C34.2292 28.82 33.7852 29 33.2572 29ZM64.1724 29C63.6684 29 63.2364 28.82 62.8764 28.46C62.5164 28.1 62.3364 27.656 62.3364 27.128V18.74L52.7244 3.8C52.4124 3.296 52.2924 2.828 52.3644 2.396C52.4364 1.94 52.6404 1.58 52.9764 1.316C53.3364 1.028 53.7444 0.883999 54.2004 0.883999C54.6084 0.883999 54.9324 0.979999 55.1724 1.172C55.4124 1.34 55.6404 1.592 55.8564 1.928L65.0004 16.436H63.5604L72.8484 1.784C73.0404 1.496 73.2684 1.28 73.5324 1.136C73.7964 0.967999 74.1204 0.883999 74.5044 0.883999C74.9364 0.883999 75.2964 1.04 75.5844 1.352C75.8724 1.64 76.0404 2.012 76.0884 2.468C76.1364 2.9 76.0164 3.344 75.7284 3.8L66.0444 18.74V27.128C66.0444 27.656 65.8644 28.1 65.5044 28.46C65.1444 28.82 64.7004 29 64.1724 29ZM81.7376 29C81.2096 29 80.7656 28.82 80.4056 28.46C80.0456 28.1 79.8656 27.656 79.8656 27.128V2.756C79.8656 2.204 80.0456 1.76 80.4056 1.424C80.7656 1.064 81.2096 0.883999 81.7376 0.883999H90.3416C91.9736 0.883999 93.4016 1.208 94.6256 1.856C95.8736 2.48 96.8456 3.356 97.5416 4.484C98.2616 5.612 98.6216 6.908 98.6216 8.372C98.6216 9.548 98.2976 10.616 97.6496 11.576C97.0256 12.512 96.1616 13.256 95.0576 13.808C96.6416 14.192 97.9136 14.948 98.8736 16.076C99.8336 17.204 100.314 18.68 100.314 20.504C100.314 22.16 99.9176 23.624 99.1256 24.896C98.3576 26.168 97.2776 27.176 95.8856 27.92C94.4936 28.64 92.8976 29 91.0976 29H81.7376ZM83.6096 25.544H91.0976C92.2016 25.544 93.1736 25.352 94.0136 24.968C94.8536 24.584 95.5136 24.02 95.9936 23.276C96.4736 22.532 96.7136 21.608 96.7136 20.504C96.7136 19.472 96.4736 18.62 95.9936 17.948C95.5136 17.276 94.8536 16.772 94.0136 16.436C93.1736 16.076 92.2016 15.896 91.0976 15.896H83.6096V25.544ZM83.6096 12.44H90.3416C91.7096 12.44 92.8256 12.104 93.6896 11.432C94.5776 10.76 95.0216 9.74 95.0216 8.372C95.0216 7.004 94.5776 5.996 93.6896 5.348C92.8256 4.676 91.7096 4.34 90.3416 4.34H83.6096V12.44ZM118.174 29.36C116.062 29.36 114.13 29.012 112.378 28.316C110.626 27.596 109.114 26.6 107.842 25.328C106.594 24.032 105.622 22.508 104.926 20.756C104.23 18.98 103.882 17.036 103.882 14.924C103.882 12.812 104.23 10.88 104.926 9.128C105.622 7.376 106.594 5.864 107.842 4.592C109.114 3.296 110.626 2.3 112.378 1.604C114.13 0.883999 116.062 0.524 118.174 0.524C120.286 0.524 122.206 0.883999 123.934 1.604C125.686 2.3 127.198 3.296 128.47 4.592C129.742 5.864 130.726 7.376 131.422 9.128C132.118 10.88 132.466 12.812 132.466 14.924C132.466 17.036 132.118 18.98 131.422 20.756C130.726 22.508 129.742 24.032 128.47 25.328C127.198 26.6 125.686 27.596 123.934 28.316C122.206 29.012 120.286 29.36 118.174 29.36ZM118.174 25.976C119.734 25.976 121.162 25.7 122.458 25.148C123.778 24.572 124.918 23.792 125.878 22.808C126.838 21.8 127.57 20.624 128.074 19.28C128.602 17.936 128.866 16.484 128.866 14.924C128.866 13.364 128.602 11.912 128.074 10.568C127.57 9.224 126.838 8.06 125.878 7.076C124.918 6.068 123.778 5.288 122.458 4.736C121.162 4.184 119.734 3.908 118.174 3.908C116.614 3.908 115.174 4.184 113.854 4.736C112.558 5.288 111.43 6.068 110.47 7.076C109.534 8.06 108.802 9.224 108.274 10.568C107.746 11.912 107.482 13.364 107.482 14.924C107.482 16.484 107.746 17.936 108.274 19.28C108.802 20.624 109.534 21.8 110.47 22.808C111.43 23.792 112.558 24.572 113.854 25.148C115.174 25.7 116.614 25.976 118.174 25.976ZM136.781 29C136.229 29 135.809 28.832 135.521 28.496C135.233 28.136 135.089 27.728 135.089 27.272C135.089 26.792 135.233 26.36 135.521 25.976L144.593 13.88L146.213 12.44L154.493 1.424C154.829 1.064 155.273 0.883999 155.825 0.883999C156.329 0.883999 156.725 1.04 157.013 1.352C157.301 1.664 157.457 2.048 157.481 2.504C157.505 2.96 157.373 3.404 157.085 3.836L148.337 15.5L146.789 16.868L138.077 28.46C137.717 28.82 137.285 29 136.781 29ZM155.609 29C155.297 29 155.021 28.952 154.781 28.856C154.565 28.736 154.361 28.556 154.169 28.316L145.781 16.688L144.449 15.572L135.989 3.836C135.701 3.452 135.581 3.032 135.629 2.576C135.677 2.12 135.845 1.724 136.133 1.388C136.445 1.052 136.853 0.883999 137.357 0.883999C137.981 0.883999 138.425 1.064 138.689 1.424L146.681 12.512L148.049 13.628L156.941 25.976C157.229 26.36 157.361 26.792 157.337 27.272C157.313 27.752 157.145 28.16 156.833 28.496C156.545 28.832 156.137 29 155.609 29Z"/>
</mask>
<path d="M15.528 29.36C13.992 29.36 12.528 29.12 11.136 28.64C9.744 28.16 8.532 27.488 7.5 26.624C6.468 25.76 5.712 24.764 5.232 23.636C4.992 23.132 4.992 22.664 5.232 22.232C5.496 21.8 5.928 21.524 6.528 21.404C6.96 21.308 7.38 21.38 7.788 21.62C8.22 21.836 8.544 22.172 8.76 22.628C9.048 23.228 9.516 23.78 10.164 24.284C10.836 24.788 11.64 25.196 12.576 25.508C13.512 25.82 14.496 25.976 15.528 25.976C16.68 25.976 17.736 25.796 18.696 25.436C19.68 25.076 20.472 24.56 21.072 23.888C21.672 23.192 21.972 22.34 21.972 21.332C21.972 20.06 21.468 18.92 20.46 17.912C19.476 16.904 17.844 16.28 15.564 16.04C12.588 15.752 10.248 14.876 8.544 13.412C6.84 11.948 5.988 10.136 5.988 7.976C5.988 6.392 6.432 5.048 7.32 3.944C8.208 2.84 9.408 2 10.92 1.424C12.456 0.847999 14.16 0.559999 16.032 0.559999C17.496 0.559999 18.768 0.763999 19.848 1.172C20.952 1.58 21.912 2.144 22.728 2.864C23.544 3.584 24.252 4.436 24.852 5.42C25.188 5.948 25.32 6.452 25.248 6.932C25.2 7.388 24.972 7.748 24.564 8.012C24.108 8.3 23.616 8.36 23.088 8.192C22.56 8.024 22.164 7.712 21.9 7.256C21.516 6.56 21.048 5.972 20.496 5.492C19.944 5.012 19.296 4.64 18.552 4.376C17.808 4.088 16.932 3.944 15.924 3.944C14.148 3.92 12.66 4.256 11.46 4.952C10.26 5.624 9.66 6.668 9.66 8.084C9.66 8.804 9.84 9.5 10.2 10.172C10.584 10.82 11.268 11.384 12.252 11.864C13.26 12.344 14.7 12.68 16.572 12.872C19.428 13.16 21.648 14.036 23.232 15.5C24.84 16.94 25.644 18.848 25.644 21.224C25.644 22.592 25.356 23.78 24.78 24.788C24.228 25.796 23.472 26.648 22.512 27.344C21.576 28.016 20.496 28.52 19.272 28.856C18.072 29.192 16.824 29.36 15.528 29.36ZM33.2572 29C32.7532 29 32.3092 28.82 31.9252 28.46C31.5652 28.1 31.3852 27.656 31.3852 27.128V2.756C31.3852 2.228 31.5652 1.784 31.9252 1.424C32.3092 1.064 32.7532 0.883999 33.2572 0.883999C33.7852 0.883999 34.2292 1.064 34.5892 1.424C34.9492 1.784 35.1292 2.228 35.1292 2.756V13.556L47.0452 1.64C47.3332 1.352 47.5972 1.16 47.8372 1.064C48.0772 0.943999 48.3292 0.883999 48.5932 0.883999C49.1932 0.883999 49.6252 1.064 49.8892 1.424C50.1532 1.784 50.2492 2.216 50.1772 2.72C50.1052 3.2 49.8772 3.644 49.4932 4.052L40.3132 13.268L49.6732 26.012C49.9612 26.42 50.0812 26.864 50.0332 27.344C49.9852 27.8 49.8172 28.196 49.5292 28.532C49.2412 28.844 48.8572 29 48.3772 29C47.7052 29 47.1892 28.736 46.8292 28.208L37.7212 15.86L35.1292 18.452V27.128C35.1292 27.656 34.9492 28.1 34.5892 28.46C34.2292 28.82 33.7852 29 33.2572 29ZM64.1724 29C63.6684 29 63.2364 28.82 62.8764 28.46C62.5164 28.1 62.3364 27.656 62.3364 27.128V18.74L52.7244 3.8C52.4124 3.296 52.2924 2.828 52.3644 2.396C52.4364 1.94 52.6404 1.58 52.9764 1.316C53.3364 1.028 53.7444 0.883999 54.2004 0.883999C54.6084 0.883999 54.9324 0.979999 55.1724 1.172C55.4124 1.34 55.6404 1.592 55.8564 1.928L65.0004 16.436H63.5604L72.8484 1.784C73.0404 1.496 73.2684 1.28 73.5324 1.136C73.7964 0.967999 74.1204 0.883999 74.5044 0.883999C74.9364 0.883999 75.2964 1.04 75.5844 1.352C75.8724 1.64 76.0404 2.012 76.0884 2.468C76.1364 2.9 76.0164 3.344 75.7284 3.8L66.0444 18.74V27.128C66.0444 27.656 65.8644 28.1 65.5044 28.46C65.1444 28.82 64.7004 29 64.1724 29ZM81.7376 29C81.2096 29 80.7656 28.82 80.4056 28.46C80.0456 28.1 79.8656 27.656 79.8656 27.128V2.756C79.8656 2.204 80.0456 1.76 80.4056 1.424C80.7656 1.064 81.2096 0.883999 81.7376 0.883999H90.3416C91.9736 0.883999 93.4016 1.208 94.6256 1.856C95.8736 2.48 96.8456 3.356 97.5416 4.484C98.2616 5.612 98.6216 6.908 98.6216 8.372C98.6216 9.548 98.2976 10.616 97.6496 11.576C97.0256 12.512 96.1616 13.256 95.0576 13.808C96.6416 14.192 97.9136 14.948 98.8736 16.076C99.8336 17.204 100.314 18.68 100.314 20.504C100.314 22.16 99.9176 23.624 99.1256 24.896C98.3576 26.168 97.2776 27.176 95.8856 27.92C94.4936 28.64 92.8976 29 91.0976 29H81.7376ZM83.6096 25.544H91.0976C92.2016 25.544 93.1736 25.352 94.0136 24.968C94.8536 24.584 95.5136 24.02 95.9936 23.276C96.4736 22.532 96.7136 21.608 96.7136 20.504C96.7136 19.472 96.4736 18.62 95.9936 17.948C95.5136 17.276 94.8536 16.772 94.0136 16.436C93.1736 16.076 92.2016 15.896 91.0976 15.896H83.6096V25.544ZM83.6096 12.44H90.3416C91.7096 12.44 92.8256 12.104 93.6896 11.432C94.5776 10.76 95.0216 9.74 95.0216 8.372C95.0216 7.004 94.5776 5.996 93.6896 5.348C92.8256 4.676 91.7096 4.34 90.3416 4.34H83.6096V12.44ZM118.174 29.36C116.062 29.36 114.13 29.012 112.378 28.316C110.626 27.596 109.114 26.6 107.842 25.328C106.594 24.032 105.622 22.508 104.926 20.756C104.23 18.98 103.882 17.036 103.882 14.924C103.882 12.812 104.23 10.88 104.926 9.128C105.622 7.376 106.594 5.864 107.842 4.592C109.114 3.296 110.626 2.3 112.378 1.604C114.13 0.883999 116.062 0.524 118.174 0.524C120.286 0.524 122.206 0.883999 123.934 1.604C125.686 2.3 127.198 3.296 128.47 4.592C129.742 5.864 130.726 7.376 131.422 9.128C132.118 10.88 132.466 12.812 132.466 14.924C132.466 17.036 132.118 18.98 131.422 20.756C130.726 22.508 129.742 24.032 128.47 25.328C127.198 26.6 125.686 27.596 123.934 28.316C122.206 29.012 120.286 29.36 118.174 29.36ZM118.174 25.976C119.734 25.976 121.162 25.7 122.458 25.148C123.778 24.572 124.918 23.792 125.878 22.808C126.838 21.8 127.57 20.624 128.074 19.28C128.602 17.936 128.866 16.484 128.866 14.924C128.866 13.364 128.602 11.912 128.074 10.568C127.57 9.224 126.838 8.06 125.878 7.076C124.918 6.068 123.778 5.288 122.458 4.736C121.162 4.184 119.734 3.908 118.174 3.908C116.614 3.908 115.174 4.184 113.854 4.736C112.558 5.288 111.43 6.068 110.47 7.076C109.534 8.06 108.802 9.224 108.274 10.568C107.746 11.912 107.482 13.364 107.482 14.924C107.482 16.484 107.746 17.936 108.274 19.28C108.802 20.624 109.534 21.8 110.47 22.808C111.43 23.792 112.558 24.572 113.854 25.148C115.174 25.7 116.614 25.976 118.174 25.976ZM136.781 29C136.229 29 135.809 28.832 135.521 28.496C135.233 28.136 135.089 27.728 135.089 27.272C135.089 26.792 135.233 26.36 135.521 25.976L144.593 13.88L146.213 12.44L154.493 1.424C154.829 1.064 155.273 0.883999 155.825 0.883999C156.329 0.883999 156.725 1.04 157.013 1.352C157.301 1.664 157.457 2.048 157.481 2.504C157.505 2.96 157.373 3.404 157.085 3.836L148.337 15.5L146.789 16.868L138.077 28.46C137.717 28.82 137.285 29 136.781 29ZM155.609 29C155.297 29 155.021 28.952 154.781 28.856C154.565 28.736 154.361 28.556 154.169 28.316L145.781 16.688L144.449 15.572L135.989 3.836C135.701 3.452 135.581 3.032 135.629 2.576C135.677 2.12 135.845 1.724 136.133 1.388C136.445 1.052 136.853 0.883999 137.357 0.883999C137.981 0.883999 138.425 1.064 138.689 1.424L146.681 12.512L148.049 13.628L156.941 25.976C157.229 26.36 157.361 26.792 157.337 27.272C157.313 27.752 157.145 28.16 156.833 28.496C156.545 28.832 156.137 29 155.609 29Z" fill="white"/>
<path d="M11.136 28.64L11.462 27.6946L11.136 28.64ZM7.5 26.624L6.85806 27.3908H6.85806L7.5 26.624ZM5.232 23.636L6.15215 23.2444L6.14391 23.2251L6.13486 23.2061L5.232 23.636ZM5.232 22.232L4.37872 21.7106L4.36791 21.7282L4.35784 21.7464L5.232 22.232ZM6.528 21.404L6.72412 22.3846L6.73455 22.3825L6.74493 22.3802L6.528 21.404ZM7.788 21.62L7.28098 22.4819L7.31033 22.4992L7.34079 22.5144L7.788 21.62ZM8.76 22.628L7.85625 23.0561L7.85848 23.0607L8.76 22.628ZM10.164 24.284L9.55006 25.0734L9.55698 25.0787L9.564 25.084L10.164 24.284ZM12.576 25.508L12.2598 26.4567V26.4567L12.576 25.508ZM18.696 25.436L18.3524 24.4968L18.3449 24.4997L18.696 25.436ZM21.072 23.888L21.8179 24.554L21.8237 24.5475L21.8294 24.5409L21.072 23.888ZM20.46 17.912L19.7444 18.6106L19.7529 18.6191L20.46 17.912ZM15.564 16.04L15.6687 15.0455L15.6603 15.0446L15.564 16.04ZM8.544 13.412L9.19567 12.6535H9.19567L8.544 13.412ZM10.92 1.424L10.5689 0.487657L10.564 0.489511L10.92 1.424ZM19.848 1.172L19.4946 2.10749L19.5014 2.10999L19.848 1.172ZM22.728 2.864L22.0664 3.61384L22.728 2.864ZM24.852 5.42L23.9982 5.94061L24.0032 5.94879L24.0083 5.95687L24.852 5.42ZM25.248 6.932L24.2591 6.78366L24.2558 6.80542L24.2535 6.82732L25.248 6.932ZM24.564 8.012L25.098 8.85754L25.1073 8.85157L24.564 8.012ZM23.088 8.192L22.7848 9.14493L22.7848 9.14493L23.088 8.192ZM21.9 7.256L21.0244 7.73908L21.0294 7.74811L21.0346 7.75703L21.9 7.256ZM20.496 5.492L21.1522 4.73739L21.1522 4.73739L20.496 5.492ZM18.552 4.376L18.191 5.30857L18.2042 5.31369L18.2176 5.31843L18.552 4.376ZM15.924 3.944L15.9105 4.944H15.924V3.944ZM11.46 4.952L11.9486 5.8245L11.9552 5.82082L11.9617 5.81703L11.46 4.952ZM10.2 10.172L9.31852 10.6442L9.32871 10.6632L9.33971 10.6818L10.2 10.172ZM12.252 11.864L11.8136 12.7628L11.8221 12.7669L12.252 11.864ZM16.572 12.872L16.47 13.8668L16.4717 13.867L16.572 12.872ZM23.232 15.5L22.5533 16.2344L22.559 16.2397L22.5649 16.2449L23.232 15.5ZM24.78 24.788L23.9118 24.2919L23.9073 24.2997L23.9029 24.3077L24.78 24.788ZM22.512 27.344L23.0952 28.1563L23.099 28.1536L22.512 27.344ZM19.272 28.856L19.0073 27.8917L19.0024 27.893L19.272 28.856ZM15.528 28.36C14.0981 28.36 12.7446 28.1369 11.462 27.6946L10.81 29.5854C12.3114 30.1031 13.8859 30.36 15.528 30.36V28.36ZM11.462 27.6946C10.1745 27.2507 9.07198 26.6359 8.14194 25.8572L6.85806 27.3908C7.99202 28.3401 9.31354 29.0693 10.81 29.5854L11.462 27.6946ZM8.14194 25.8572C7.21893 25.0845 6.56446 24.2134 6.15215 23.2444L4.31185 24.0276C4.85954 25.3146 5.71707 26.4355 6.85806 27.3908L8.14194 25.8572ZM6.13486 23.2061C6.01303 22.9502 6.04529 22.8272 6.10616 22.7176L4.35784 21.7464C3.93871 22.5008 3.97097 23.3138 4.32914 24.0659L6.13486 23.2061ZM6.08528 22.7535C6.17399 22.6083 6.33592 22.4622 6.72412 22.3846L6.33188 20.4234C5.52008 20.5858 4.81801 20.9917 4.37872 21.7106L6.08528 22.7535ZM6.74493 22.3802C6.91163 22.3431 7.0745 22.3605 7.28098 22.4819L8.29502 20.7581C7.6855 20.3995 7.00837 20.2729 6.31107 20.4278L6.74493 22.3802ZM7.34079 22.5144C7.56333 22.6257 7.7314 22.7925 7.85626 23.0561L9.66374 22.1999C9.3566 21.5515 8.87667 21.0463 8.23521 20.7256L7.34079 22.5144ZM7.85848 23.0607C8.22726 23.829 8.80787 24.4961 9.55006 25.0734L10.7779 23.4946C10.2241 23.0639 9.86874 22.627 9.66152 22.1953L7.85848 23.0607ZM9.564 25.084C10.3355 25.6626 11.2392 26.1165 12.2598 26.4567L12.8922 24.5593C12.0408 24.2755 11.3365 23.9134 10.764 23.484L9.564 25.084ZM12.2598 26.4567C13.3024 26.8042 14.3935 26.976 15.528 26.976V24.976C14.5985 24.976 13.7216 24.8358 12.8922 24.5593L12.2598 26.4567ZM15.528 26.976C16.7852 26.976 17.9618 26.7793 19.0471 26.3723L18.3449 24.4997C17.5102 24.8127 16.5748 24.976 15.528 24.976V26.976ZM19.0396 26.3751C20.1528 25.9678 21.0917 25.3674 21.8179 24.554L20.3261 23.222C19.8523 23.7526 19.2072 24.1842 18.3524 24.4969L19.0396 26.3751ZM21.8294 24.5409C22.6015 23.6453 22.972 22.5547 22.972 21.332H20.972C20.972 22.1253 20.7425 22.7387 20.3146 23.2351L21.8294 24.5409ZM22.972 21.332C22.972 19.7617 22.3379 18.3757 21.1671 17.2049L19.7529 18.6191C20.5981 19.4643 20.972 20.3583 20.972 21.332H22.972ZM21.1756 17.2135C19.9538 15.9619 18.0451 15.2956 15.6687 15.0455L15.4593 17.0345C17.6429 17.2644 18.9982 17.8461 19.7444 18.6105L21.1756 17.2135ZM15.6603 15.0446C12.8225 14.77 10.6991 13.9452 9.19567 12.6535L7.89233 14.1705C9.79688 15.8068 12.3535 16.734 15.4677 17.0353L15.6603 15.0446ZM9.19567 12.6535C7.70266 11.3708 6.988 9.83138 6.988 7.976H4.988C4.988 10.4406 5.97735 12.5252 7.89233 14.1705L9.19567 12.6535ZM6.988 7.976C6.988 6.59147 7.371 5.4761 8.09921 4.57076L6.54079 3.31724C5.493 4.6199 4.988 6.19253 4.988 7.976H6.988ZM8.09921 4.57076C8.86091 3.62378 9.90592 2.88042 11.276 2.35849L10.564 0.489511C8.91008 1.11958 7.55509 2.05622 6.54079 3.31724L8.09921 4.57076ZM11.2711 2.36033C12.6802 1.83193 14.2632 1.56 16.032 1.56V-0.440001C14.0568 -0.440001 12.2318 -0.135934 10.5689 0.48767L11.2711 2.36033ZM16.032 1.56C17.4062 1.56 18.5533 1.75186 19.4946 2.10747L20.2014 0.236525C18.9827 -0.223864 17.5858 -0.440001 16.032 -0.440001V1.56ZM19.5014 2.10999C20.4991 2.47874 21.3502 2.98188 22.0664 3.61384L23.3896 2.11416C22.4738 1.30612 21.4049 0.681257 20.1947 0.234004L19.5014 2.10999ZM22.0664 3.61384C22.8029 4.26368 23.4473 5.03715 23.9982 5.94061L25.7058 4.89939C25.0567 3.83484 24.2851 2.90432 23.3896 2.11416L22.0664 3.61384ZM24.0083 5.95687C24.2533 6.34174 24.286 6.60437 24.2591 6.78366L26.2369 7.08034C26.354 6.29962 26.1228 5.55426 25.6957 4.88312L24.0083 5.95687ZM24.2535 6.82732C24.2393 6.96264 24.1925 7.06131 24.0208 7.17243L25.1073 8.85157C25.7515 8.43469 26.1608 7.81336 26.2425 7.03668L24.2535 6.82732ZM24.03 7.16651C23.8313 7.29201 23.6468 7.32041 23.3912 7.23907L22.7848 9.14493C23.5852 9.39959 24.3847 9.30799 25.098 8.85749L24.03 7.16651ZM23.3912 7.23907C23.0869 7.14225 22.8979 6.98376 22.7654 6.75496L21.0346 7.75703C21.4301 8.44024 22.0331 8.90575 22.7848 9.14493L23.3912 7.23907ZM22.7756 6.77292C22.3398 5.98316 21.8 5.30075 21.1522 4.73739L19.8398 6.2466C20.296 6.64325 20.6922 7.13684 21.0244 7.73908L22.7756 6.77292ZM21.1522 4.73739C20.4984 4.16887 19.7391 3.73613 18.8864 3.43357L18.2176 5.31843C18.8529 5.54387 19.3896 5.85513 19.8398 6.2466L21.1522 4.73739ZM18.913 3.44343C18.028 3.10084 17.0243 2.944 15.924 2.944V4.944C16.8397 4.944 17.588 5.07516 18.191 5.30857L18.913 3.44343ZM15.9375 2.94409C14.0306 2.91832 12.3528 3.27815 10.9583 4.08697L11.9617 5.81703C12.9672 5.23385 14.2654 4.92168 15.9105 4.94391L15.9375 2.94409ZM10.9714 4.07949C10.2366 4.49097 9.64521 5.04084 9.24299 5.74072C8.84162 6.4391 8.66 7.23211 8.66 8.084H10.66C10.66 7.51989 10.7784 7.0829 10.977 6.73728C11.1748 6.39316 11.4834 6.08503 11.9486 5.8245L10.9714 4.07949ZM8.66 8.084C8.66 8.97848 8.88544 9.8358 9.31852 10.6442L11.0815 9.69978C10.7946 9.1642 10.66 8.62952 10.66 8.084H8.66ZM9.33971 10.6818C9.85891 11.558 10.7295 12.234 11.8136 12.7628L12.6904 10.9652C11.8065 10.534 11.3091 10.082 11.0603 9.6622L9.33971 10.6818ZM11.8221 12.7669C12.9803 13.3184 14.5511 13.67 16.47 13.8668L16.674 11.8772C14.8489 11.69 13.5397 11.3696 12.6819 10.9611L11.8221 12.7669ZM16.4717 13.867C19.1827 14.1403 21.1742 14.9598 22.5533 16.2344L23.9107 14.7656C22.1218 13.1122 19.6733 12.1797 16.6723 11.877L16.4717 13.867ZM22.5649 16.2449C23.9383 17.4749 24.644 19.1003 24.644 21.224H26.644C26.644 18.5957 25.7417 16.4051 23.8991 14.755L22.5649 16.2449ZM24.644 21.224C24.644 22.4492 24.3871 23.4599 23.9118 24.2919L25.6482 25.2841C26.3249 24.1001 26.644 22.7348 26.644 21.224H24.644ZM23.9029 24.3077C23.4243 25.1816 22.7691 25.9225 21.925 26.5344L23.099 28.1536C24.1749 27.3735 25.0317 26.4104 25.6571 25.2683L23.9029 24.3077ZM21.9288 26.5317C21.0984 27.1278 20.1285 27.5839 19.0073 27.8917L19.5367 29.8203C20.8635 29.4561 22.0536 28.9042 23.0952 28.1563L21.9288 26.5317ZM19.0024 27.893C17.8936 28.2035 16.7365 28.36 15.528 28.36V30.36C16.9115 30.36 18.2504 30.1805 19.5416 29.819L19.0024 27.893ZM31.9252 28.46L31.2181 29.1671L31.2295 29.1785L31.2412 29.1895L31.9252 28.46ZM31.9252 1.424L31.2412 0.694461L31.2295 0.70549L31.2181 0.716892L31.9252 1.424ZM35.1292 13.556H34.1292V15.9702L35.8363 14.2631L35.1292 13.556ZM47.0452 1.64L46.3381 0.93289V0.932891L47.0452 1.64ZM47.8372 1.064L48.2085 1.99248L48.2472 1.97703L48.2844 1.95843L47.8372 1.064ZM50.1772 2.72L51.1661 2.86834L51.1671 2.86142L50.1772 2.72ZM49.4932 4.052L50.2016 4.75772L50.2116 4.74768L50.2214 4.73736L49.4932 4.052ZM40.3132 13.268L39.6047 12.5623L39 13.1694L39.5072 13.86L40.3132 13.268ZM49.6732 26.012L50.4901 25.4353L50.4847 25.4276L50.4791 25.42L49.6732 26.012ZM50.0332 27.344L51.0277 27.4487L51.0282 27.4435L50.0332 27.344ZM49.5292 28.532L50.264 29.2103L50.2764 29.1968L50.2884 29.1828L49.5292 28.532ZM46.8292 28.208L47.6554 27.6447L47.6449 27.6293L47.6339 27.6144L46.8292 28.208ZM37.7212 15.86L38.5259 15.2664L37.836 14.331L37.014 15.1529L37.7212 15.86ZM35.1292 18.452L34.4221 17.7449L34.1292 18.0378V18.452H35.1292ZM33.2572 28C33.0194 28 32.8168 27.9252 32.6091 27.7305L31.2412 29.1895C31.8015 29.7148 32.4869 30 33.2572 30V28ZM32.6323 27.7529C32.4674 27.5881 32.3852 27.4018 32.3852 27.128H30.3852C30.3852 27.9102 30.6629 28.6119 31.2181 29.1671L32.6323 27.7529ZM32.3852 27.128V2.756H30.3852V27.128H32.3852ZM32.3852 2.756C32.3852 2.48223 32.4674 2.29594 32.6323 2.13111L31.2181 0.716892C30.6629 1.27205 30.3852 1.97376 30.3852 2.756H32.3852ZM32.6091 2.15354C32.8168 1.95879 33.0194 1.884 33.2572 1.884V-0.116001C32.4869 -0.116001 31.8015 0.169207 31.2412 0.694461L32.6091 2.15354ZM33.2572 1.884C33.5309 1.884 33.7172 1.96627 33.882 2.13111L35.2963 0.716892C34.7411 0.16173 34.0394 -0.116001 33.2572 -0.116001V1.884ZM33.882 2.13111C34.0469 2.29594 34.1292 2.48223 34.1292 2.756H36.1292C36.1292 1.97376 35.8514 1.27205 35.2963 0.716892L33.882 2.13111ZM34.1292 2.756V13.556H36.1292V2.756H34.1292ZM35.8363 14.2631L47.7523 2.34711L46.3381 0.932891L34.4221 12.8489L35.8363 14.2631ZM47.7523 2.34711C47.9935 2.10583 48.1457 2.0176 48.2085 1.99248L47.4658 0.135523C47.0486 0.302398 46.6728 0.598164 46.3381 0.93289L47.7523 2.34711ZM48.2844 1.95843C48.3879 1.90667 48.487 1.884 48.5932 1.884V-0.116001C48.1713 -0.116001 47.7664 -0.0186749 47.3899 0.169572L48.2844 1.95843ZM48.5932 1.884C48.9936 1.884 49.0679 1.99508 49.0828 2.01536L50.6956 0.832636C50.1824 0.132915 49.3927 -0.116001 48.5932 -0.116001V1.884ZM49.0828 2.01536C49.1701 2.13444 49.2279 2.29405 49.1872 2.57858L51.1671 2.86142C51.2705 2.13794 51.1362 1.43355 50.6956 0.832636L49.0828 2.01536ZM49.1882 2.57166C49.1509 2.82044 49.0316 3.08332 48.765 3.36664L50.2214 4.73736C50.7227 4.20468 51.0594 3.57956 51.1661 2.86834L49.1882 2.57166ZM48.7847 3.34628L39.6047 12.5623L41.0216 13.9737L50.2016 4.75772L48.7847 3.34628ZM39.5072 13.86L48.8672 26.604L50.4791 25.42L41.1191 12.676L39.5072 13.86ZM48.8562 26.5887C49.0107 26.8076 49.0613 27.0131 49.0381 27.2445L51.0282 27.4435C51.101 26.7149 50.9116 26.0324 50.4901 25.4353L48.8562 26.5887ZM49.0387 27.2393C49.0111 27.5014 48.921 27.705 48.7699 27.8812L50.2884 29.1828C50.7134 28.687 50.9592 28.0986 51.0277 27.4487L49.0387 27.2393ZM48.7944 27.8537C48.7213 27.9328 48.6183 28 48.3772 28V30C49.0961 30 49.761 29.7551 50.264 29.2103L48.7944 27.8537ZM48.3772 28C48.0155 28 47.818 27.8831 47.6554 27.6447L46.0029 28.7713C46.5603 29.5889 47.3948 30 48.3772 30V28ZM47.6339 27.6144L38.5259 15.2664L36.9164 16.4536L46.0244 28.8016L47.6339 27.6144ZM37.014 15.1529L34.4221 17.7449L35.8363 19.1591L38.4283 16.5671L37.014 15.1529ZM34.1292 18.452V27.128H36.1292V18.452H34.1292ZM34.1292 27.128C34.1292 27.4018 34.0469 27.5881 33.882 27.7529L35.2963 29.1671C35.8514 28.6119 36.1292 27.9102 36.1292 27.128H34.1292ZM33.882 27.7529C33.7172 27.9177 33.5309 28 33.2572 28V30C34.0394 30 34.7411 29.7223 35.2963 29.1671L33.882 27.7529ZM62.8764 28.46L62.1693 29.1671L62.8764 28.46ZM62.3364 18.74H63.3364V18.4461L63.1774 18.1989L62.3364 18.74ZM52.7244 3.8L51.8742 4.32635L51.8787 4.33375L51.8835 4.34106L52.7244 3.8ZM52.3644 2.396L53.3509 2.5604L53.3522 2.55196L52.3644 2.396ZM52.9764 1.316L53.5943 2.10235L53.6011 2.09687L52.9764 1.316ZM55.1724 1.172L54.5477 1.95287L54.5727 1.97287L54.599 1.99123L55.1724 1.172ZM55.8564 1.928L56.7025 1.39477L56.6976 1.38724L55.8564 1.928ZM65.0004 16.436V17.436H66.8128L65.8464 15.9028L65.0004 16.436ZM63.5604 16.436L62.7158 15.9006L61.7425 17.436H63.5604V16.436ZM72.8484 1.784L72.0164 1.2293L72.01 1.23888L72.0038 1.2486L72.8484 1.784ZM73.5324 1.136L74.0113 2.01389L74.0409 1.99775L74.0693 1.97966L73.5324 1.136ZM75.5844 1.352L74.8496 2.03028L74.8632 2.04497L74.8773 2.05911L75.5844 1.352ZM76.0884 2.468L75.0939 2.57268L75.0946 2.57843L76.0884 2.468ZM75.7284 3.8L76.5676 4.34396L76.5739 4.33399L75.7284 3.8ZM66.0444 18.74L65.2053 18.1961L65.0444 18.4443V18.74H66.0444ZM65.5044 28.46L66.2115 29.1671L65.5044 28.46ZM64.1724 28C63.9367 28 63.7581 27.9275 63.5835 27.7529L62.1693 29.1671C62.7147 29.7125 63.4002 30 64.1724 30V28ZM63.5835 27.7529C63.4187 27.5881 63.3364 27.4018 63.3364 27.128H61.3364C61.3364 27.9102 61.6142 28.6119 62.1693 29.1671L63.5835 27.7529ZM63.3364 27.128V18.74H61.3364V27.128H63.3364ZM63.1774 18.1989L53.5654 3.25893L51.8835 4.34106L61.4955 19.2811L63.1774 18.1989ZM53.5747 3.27364C53.3449 2.90235 53.3309 2.67996 53.3508 2.5604L51.378 2.2316C51.254 2.97604 51.48 3.68965 51.8742 4.32635L53.5747 3.27364ZM53.3522 2.55196C53.3883 2.32336 53.4734 2.19724 53.5943 2.10232L52.3586 0.529681C51.8074 0.962755 51.4846 1.55664 51.3767 2.24004L53.3522 2.55196ZM53.6011 2.09687C53.7859 1.94902 53.9742 1.884 54.2004 1.884V-0.116001C53.5147 -0.116001 52.8869 0.10698 52.3517 0.535128L53.6011 2.09687ZM54.2004 1.884C54.4559 1.884 54.5356 1.94317 54.5477 1.95287L55.7971 0.391127C55.3293 0.0168262 54.761 -0.116001 54.2004 -0.116001V1.884ZM54.599 1.99123C54.7014 2.06292 54.8456 2.20485 55.0153 2.46876L56.6976 1.38724C56.4353 0.979148 56.1235 0.617078 55.7459 0.352767L54.599 1.99123ZM55.0105 2.4612L64.1544 16.9692L65.8464 15.9028L56.7024 1.3948L55.0105 2.4612ZM65.0004 15.436H63.5604V17.436H65.0004V15.436ZM64.405 16.9714L73.693 2.3194L72.0038 1.2486L62.7158 15.9006L64.405 16.9714ZM73.6805 2.3387C73.7963 2.16497 73.9096 2.06937 74.0113 2.01389L73.0536 0.258103C72.6273 0.49063 72.2846 0.827027 72.0164 1.2293L73.6805 2.3387ZM74.0693 1.97966C74.1399 1.93477 74.2673 1.884 74.5044 1.884V-0.116001C73.9736 -0.116001 73.453 0.00122714 72.9956 0.292336L74.0693 1.97966ZM74.5044 1.884C74.6629 1.884 74.7547 1.92739 74.8496 2.03028L76.3192 0.673721C75.8382 0.152611 75.21 -0.116001 74.5044 -0.116001V1.884ZM74.8773 2.05911C74.983 2.16482 75.0667 2.31415 75.0939 2.57268L77.0829 2.36331C77.0142 1.70985 76.7618 1.11518 76.2915 0.644891L74.8773 2.05911ZM75.0946 2.57843C75.112 2.73502 75.0798 2.95441 74.8829 3.266L76.5739 4.33399C76.9531 3.73359 77.1609 3.06498 77.0823 2.35756L75.0946 2.57843ZM74.8893 3.25608L65.2053 18.1961L66.8836 19.2839L76.5676 4.34392L74.8893 3.25608ZM65.0444 18.74V27.128H67.0444V18.74H65.0444ZM65.0444 27.128C65.0444 27.4018 64.9622 27.5881 64.7973 27.7529L66.2115 29.1671C66.7667 28.6119 67.0444 27.9102 67.0444 27.128H65.0444ZM64.7973 27.7529C64.6325 27.9177 64.4462 28 64.1724 28V30C64.9547 30 65.6564 29.7223 66.2115 29.1671L64.7973 27.7529ZM80.4056 28.46L79.6985 29.1671L80.4056 28.46ZM80.4056 1.424L81.0879 2.15505L81.1005 2.14329L81.1127 2.13111L80.4056 1.424ZM94.6256 1.856L94.1577 2.73979L94.168 2.74523L94.1784 2.75043L94.6256 1.856ZM97.5416 4.484L96.6906 5.00911L96.6946 5.0156L96.6987 5.02203L97.5416 4.484ZM97.6496 11.576L96.8208 11.0165L96.8176 11.0213L97.6496 11.576ZM95.0576 13.808L94.6104 12.9136L92.1657 14.1359L94.822 14.7799L95.0576 13.808ZM98.8736 16.076L99.6352 15.4279V15.4279L98.8736 16.076ZM99.1256 24.896L98.2766 24.3674L98.2696 24.3791L99.1256 24.896ZM95.8856 27.92L96.3451 28.8083L96.357 28.8019L95.8856 27.92ZM83.6096 25.544H82.6096V26.544H83.6096V25.544ZM94.0136 24.968L94.4294 25.8775H94.4294L94.0136 24.968ZM95.9936 23.276L96.8339 23.8181L95.9936 23.276ZM95.9936 17.948L96.8074 17.3668V17.3668L95.9936 17.948ZM94.0136 16.436L93.6197 17.3551L93.6309 17.3599L93.6422 17.3645L94.0136 16.436ZM83.6096 15.896V14.896H82.6096V15.896H83.6096ZM83.6096 12.44H82.6096V13.44H83.6096V12.44ZM93.6896 11.432L93.0861 10.6345L93.0757 10.6426L93.6896 11.432ZM93.6896 5.348L93.0757 6.13735L93.0878 6.14676L93.1002 6.15579L93.6896 5.348ZM83.6096 4.34V3.34H82.6096V4.34H83.6096ZM81.7376 28C81.4639 28 81.2776 27.9177 81.1127 27.7529L79.6985 29.1671C80.2537 29.7223 80.9554 30 81.7376 30V28ZM81.1127 27.7529C80.9479 27.5881 80.8656 27.4018 80.8656 27.128H78.8656C78.8656 27.9102 79.1434 28.6119 79.6985 29.1671L81.1127 27.7529ZM80.8656 27.128V2.756H78.8656V27.128H80.8656ZM80.8656 2.756C80.8656 2.44414 80.9562 2.27805 81.0879 2.15505L79.7233 0.692944C79.1351 1.24194 78.8656 1.96386 78.8656 2.756H80.8656ZM81.1127 2.13111C81.2776 1.96627 81.4639 1.884 81.7376 1.884V-0.116001C80.9554 -0.116001 80.2537 0.16173 79.6985 0.716892L81.1127 2.13111ZM81.7376 1.884H90.3416V-0.116001H81.7376V1.884ZM90.3416 1.884C91.8396 1.884 93.1016 2.18064 94.1577 2.73979L95.0935 0.972212C93.7017 0.23536 92.1077 -0.116001 90.3416 -0.116001V1.884ZM94.1784 2.75043C95.2693 3.29585 96.0975 4.04787 96.6906 5.00911L98.3927 3.95889C97.5938 2.66412 96.478 1.66415 95.0728 0.961572L94.1784 2.75043ZM96.6987 5.02203C97.3066 5.97433 97.6216 7.08004 97.6216 8.372H99.6216C99.6216 6.73596 99.2167 5.24967 98.3845 3.94596L96.6987 5.02203ZM97.6216 8.372C97.6216 9.35187 97.3554 10.2245 96.8208 11.0165L98.4785 12.1355C99.2398 11.0075 99.6216 9.74412 99.6216 8.372H97.6216ZM96.8176 11.0213C96.2993 11.7987 95.5743 12.4316 94.6104 12.9136L95.5048 14.7024C96.7489 14.0804 97.7519 13.2253 98.4817 12.1307L96.8176 11.0213ZM94.822 14.7799C96.2226 15.1194 97.3026 15.773 98.1121 16.7241L99.6352 15.4279C98.5246 14.123 97.0607 13.2646 95.2932 12.8361L94.822 14.7799ZM98.1121 16.7241C98.8849 17.6321 99.3136 18.8605 99.3136 20.504H101.314C101.314 18.4995 100.782 16.7759 99.6352 15.4279L98.1121 16.7241ZM99.3136 20.504C99.3136 21.9935 98.9598 23.2704 98.2767 24.3674L99.9745 25.4246C100.875 23.9776 101.314 22.3265 101.314 20.504H99.3136ZM98.2696 24.3791C97.6004 25.4874 96.6578 26.3734 95.4142 27.0381L96.357 28.8019C97.8975 27.9786 99.1148 26.8486 99.9817 25.4129L98.2696 24.3791ZM95.4262 27.0318C94.196 27.6681 92.7616 28 91.0976 28V30C93.0336 30 94.7913 29.6119 96.345 28.8082L95.4262 27.0318ZM91.0976 28H81.7376V30H91.0976V28ZM83.6096 26.544H91.0976V24.544H83.6096V26.544ZM91.0976 26.544C92.3175 26.544 93.4359 26.3316 94.4294 25.8775L93.5979 24.0585C92.9113 24.3724 92.0858 24.544 91.0976 24.544V26.544ZM94.4294 25.8775C95.4352 25.4177 96.2458 24.7297 96.8339 23.8181L95.1533 22.7339C94.7815 23.3103 94.2721 23.7503 93.5979 24.0585L94.4294 25.8775ZM96.8339 23.8181C97.4412 22.8768 97.7136 21.7529 97.7136 20.504H95.7136C95.7136 21.4631 95.506 22.1872 95.1533 22.7339L96.8339 23.8181ZM97.7136 20.504C97.7136 19.3161 97.4358 18.2466 96.8074 17.3668L95.1799 18.5292C95.5114 18.9934 95.7136 19.6279 95.7136 20.504H97.7136ZM96.8074 17.3668C96.2056 16.5243 95.385 15.9075 94.385 15.5075L93.6422 17.3645C94.3222 17.6365 94.8216 18.0277 95.1799 18.5292L96.8074 17.3668ZM94.4075 15.5169C93.42 15.0936 92.3095 14.896 91.0976 14.896V16.896C92.0938 16.896 92.9272 17.0584 93.6197 17.3551L94.4075 15.5169ZM91.0976 14.896H83.6096V16.896H91.0976V14.896ZM82.6096 15.896V25.544H84.6096V15.896H82.6096ZM83.6096 13.44H90.3416V11.44H83.6096V13.44ZM90.3416 13.44C91.8754 13.44 93.224 13.061 94.3036 12.2214L93.0757 10.6426C92.4272 11.147 91.5439 11.44 90.3416 11.44V13.44ZM94.2931 12.2294C95.4882 11.325 96.0216 9.97354 96.0216 8.372H94.0216C94.0216 9.50646 93.667 10.195 93.0862 10.6346L94.2931 12.2294ZM96.0216 8.372C96.0216 6.77178 95.4882 5.42254 94.2791 4.54021L93.1002 6.15579C93.667 6.56946 94.0216 7.23622 94.0216 8.372H96.0216ZM94.3036 4.55865C93.224 3.719 91.8754 3.34 90.3416 3.34V5.34C91.5439 5.34 92.4272 5.63299 93.0757 6.13735L94.3036 4.55865ZM90.3416 3.34H83.6096V5.34H90.3416V3.34ZM82.6096 4.34V12.44H84.6096V4.34H82.6096ZM112.378 28.316L111.998 29.241L112.009 29.2454L112.378 28.316ZM107.842 25.328L107.122 26.0216L107.128 26.0284L107.135 26.0351L107.842 25.328ZM104.926 20.756L103.995 21.1209L103.997 21.1252L104.926 20.756ZM104.926 9.128L103.997 8.7588L104.926 9.128ZM107.842 4.592L107.128 3.89153L107.128 3.89166L107.842 4.592ZM112.378 1.604L112.747 2.53342L112.758 2.52894L112.378 1.604ZM123.934 1.604L123.55 2.52708L123.557 2.53028L123.565 2.53335L123.934 1.604ZM128.47 4.592L127.756 5.2925L127.763 5.29911L128.47 4.592ZM131.422 9.128L132.351 8.7588V8.7588L131.422 9.128ZM131.422 20.756L132.351 21.1252L132.353 21.1209L131.422 20.756ZM128.47 25.328L129.177 26.0351L129.184 26.0285L128.47 25.328ZM123.934 28.316L124.308 29.2436L124.314 29.2409L123.934 28.316ZM122.458 25.148L122.85 26.0681L122.858 26.0645L122.458 25.148ZM125.878 22.808L126.594 23.5064L126.602 23.4977L125.878 22.808ZM128.074 19.28L127.143 18.9143L127.141 18.9216L127.138 18.9289L128.074 19.28ZM128.074 10.568L127.138 10.9191L127.141 10.9264L127.143 10.9337L128.074 10.568ZM125.878 7.076L125.154 7.7657L125.162 7.77432L125.878 7.076ZM122.458 4.736L122.066 5.65604L122.072 5.65858L122.458 4.736ZM113.854 4.736L113.468 3.8134L113.462 3.81598L113.854 4.736ZM110.47 7.076L109.746 6.38634L109.746 6.38679L110.47 7.076ZM110.47 22.808L109.737 23.4885L109.746 23.4975L109.754 23.5063L110.47 22.808ZM113.854 25.148L113.448 26.0618L113.458 26.0663L113.468 26.0706L113.854 25.148ZM118.174 28.36C116.173 28.36 114.369 28.0307 112.747 27.3866L112.009 29.2454C113.892 29.9933 115.951 30.36 118.174 30.36V28.36ZM112.758 27.3911C111.122 26.7186 109.723 25.7945 108.549 24.6209L107.135 26.0351C108.505 27.4055 110.13 28.4734 111.998 29.2409L112.758 27.3911ZM108.562 24.6344C107.409 23.4363 106.506 22.024 105.855 20.3868L103.997 21.1252C104.738 22.992 105.779 24.6277 107.122 26.0216L108.562 24.6344ZM105.857 20.3911C105.211 18.7432 104.882 16.9245 104.882 14.924H102.882C102.882 17.1475 103.249 19.2168 103.995 21.1209L105.857 20.3911ZM104.882 14.924C104.882 12.9233 105.211 11.1184 105.855 9.49719L103.997 8.7588C103.249 10.6416 102.882 12.7007 102.882 14.924H104.882ZM105.855 9.49719C106.505 7.86154 107.406 6.46396 108.556 5.29234L107.128 3.89166C105.782 5.26404 104.739 6.89046 103.997 8.7588L105.855 9.49719ZM108.556 5.29247C109.726 4.09974 111.12 3.1799 112.747 2.53335L112.009 0.674647C110.132 1.42009 108.502 2.49225 107.128 3.89153L108.556 5.29247ZM112.758 2.52894C114.377 1.8639 116.178 1.524 118.174 1.524V-0.476C115.947 -0.476 113.884 -0.0958977 111.998 0.679058L112.758 2.52894ZM118.174 1.524C120.171 1.524 121.958 1.86397 123.55 2.52708L124.319 0.680922C122.454 -0.0959675 120.401 -0.476 118.174 -0.476V1.524ZM123.565 2.53335C125.192 3.1799 126.586 4.09974 127.756 5.29247L129.184 3.89153C127.81 2.49225 126.18 1.42009 124.303 0.674647L123.565 2.53335ZM127.763 5.29911C128.934 6.47018 129.845 7.8656 130.493 9.49719L132.351 8.7588C131.608 6.8864 130.55 5.25782 129.177 3.88489L127.763 5.29911ZM130.493 9.49719C131.137 11.1184 131.466 12.9233 131.466 14.924H133.466C133.466 12.7007 133.099 10.6416 132.351 8.7588L130.493 9.49719ZM131.466 14.924C131.466 16.9245 131.137 18.7432 130.491 20.3911L132.353 21.1209C133.099 19.2168 133.466 17.1475 133.466 14.924H131.466ZM130.493 20.3868C129.844 22.0199 128.932 23.4301 127.756 24.6275L129.184 26.0285C130.553 24.6339 131.608 22.9961 132.351 21.1252L130.493 20.3868ZM127.763 24.6209C126.589 25.7945 125.19 26.7186 123.554 27.3911L124.314 29.2409C126.182 28.4734 127.807 27.4055 129.177 26.0351L127.763 24.6209ZM123.561 27.3884C121.966 28.0306 120.175 28.36 118.174 28.36V30.36C120.397 30.36 122.446 29.9934 124.308 29.2436L123.561 27.3884ZM118.174 26.976C119.854 26.976 121.417 26.6782 122.85 26.068L122.066 24.228C120.907 24.7218 119.614 24.976 118.174 24.976V26.976ZM122.858 26.0645C124.291 25.4394 125.539 24.5871 126.594 23.5063L125.162 22.1097C124.297 22.9968 123.266 23.7046 122.058 24.2315L122.858 26.0645ZM126.602 23.4977C127.658 22.3892 128.461 21.0971 129.01 19.6311L127.138 18.9289C126.68 20.1509 126.018 21.2108 125.154 22.1183L126.602 23.4977ZM129.005 19.6457C129.582 18.1761 129.866 16.599 129.866 14.924H127.866C127.866 16.369 127.622 17.6959 127.143 18.9143L129.005 19.6457ZM129.866 14.924C129.866 13.249 129.582 11.6719 129.005 10.2023L127.143 10.9337C127.622 12.1521 127.866 13.479 127.866 14.924H129.866ZM129.01 10.2169C128.46 8.74896 127.655 7.46525 126.594 6.37768L125.162 7.77432C126.021 8.65475 126.68 9.69904 127.138 10.9191L129.01 10.2169ZM126.602 6.38634C125.544 5.2753 124.288 4.41729 122.844 3.81342L122.072 5.65858C123.268 6.15871 124.292 6.86069 125.154 7.76565L126.602 6.38634ZM122.85 3.81598C121.417 3.2058 119.854 2.908 118.174 2.908V4.908C119.614 4.908 120.907 5.1622 122.066 5.65602L122.85 3.81598ZM118.174 2.908C116.494 2.908 114.921 3.20586 113.468 3.81342L114.24 5.65858C115.427 5.16213 116.735 4.908 118.174 4.908V2.908ZM113.462 3.81598C112.043 4.42068 110.801 5.27852 109.746 6.38634L111.194 7.76565C112.059 6.85747 113.074 6.15532 114.246 5.65602L113.462 3.81598ZM109.746 6.38679C108.715 7.47013 107.916 8.74589 107.343 10.2023L109.205 10.9337C109.689 9.70211 110.353 8.64987 111.195 7.76521L109.746 6.38679ZM107.343 10.2023C106.766 11.6719 106.482 13.249 106.482 14.924H108.482C108.482 13.479 108.726 12.1521 109.205 10.9337L107.343 10.2023ZM106.482 14.924C106.482 16.599 106.766 18.1761 107.343 19.6457L109.205 18.9143C108.726 17.6959 108.482 16.369 108.482 14.924H106.482ZM107.343 19.6457C107.915 21.1002 108.712 22.3843 109.737 23.4885L111.203 22.1275C110.356 21.2157 109.689 20.1478 109.205 18.9143L107.343 19.6457ZM109.754 23.5063C110.806 24.584 112.04 25.4359 113.448 26.0618L114.26 24.2342C113.076 23.7081 112.054 23 111.186 22.1097L109.754 23.5063ZM113.468 26.0706C114.921 26.6781 116.494 26.976 118.174 26.976V24.976C116.735 24.976 115.427 24.7219 114.24 24.2254L113.468 26.0706ZM135.521 28.496L134.74 29.1207L134.751 29.1339L134.762 29.1468L135.521 28.496ZM144.593 13.88L143.929 13.1326L143.853 13.1995L143.793 13.28L144.593 13.88ZM146.213 12.44L146.877 13.1874L146.952 13.1209L147.012 13.0408L146.213 12.44ZM154.493 1.424L153.762 0.74168L153.726 0.780603L153.694 0.823163L154.493 1.424ZM157.013 1.352L157.748 0.673719V0.673719L157.013 1.352ZM157.481 2.504L158.48 2.45144V2.45144L157.481 2.504ZM157.085 3.836L157.885 4.436L157.902 4.41379L157.917 4.3907L157.085 3.836ZM148.337 15.5L148.999 16.2493L149.076 16.1817L149.137 16.1L148.337 15.5ZM146.789 16.868L146.127 16.1187L146.051 16.186L145.99 16.2672L146.789 16.868ZM138.077 28.46L138.784 29.1671L138.834 29.1172L138.876 29.0608L138.077 28.46ZM154.781 28.856L154.295 29.7302L154.351 29.7609L154.41 29.7845L154.781 28.856ZM154.169 28.316L153.358 28.901L153.373 28.9212L153.388 28.9407L154.169 28.316ZM145.781 16.688L146.592 16.103L146.519 16.0017L146.423 15.9215L145.781 16.688ZM144.449 15.572L143.638 16.1568L143.711 16.2582L143.807 16.3385L144.449 15.572ZM135.989 3.836L136.8 3.25123L136.795 3.24356L136.789 3.236L135.989 3.836ZM135.629 2.576L136.624 2.68068V2.68068L135.629 2.576ZM136.133 1.388L135.4 0.707548L135.387 0.722115L135.374 0.737208L136.133 1.388ZM138.689 1.424L139.5 0.839258L139.495 0.832635L138.689 1.424ZM146.681 12.512L145.87 13.0967L145.947 13.2036L146.049 13.2869L146.681 12.512ZM148.049 13.628L148.861 13.0436L148.783 12.9365L148.681 12.8531L148.049 13.628ZM156.941 25.976L156.13 26.5604L156.135 26.5682L156.141 26.576L156.941 25.976ZM157.337 27.272L158.336 27.3219L157.337 27.272ZM156.833 28.496L156.1 27.8155L156.087 27.8301L156.074 27.8452L156.833 28.496ZM136.781 28C136.443 28 136.333 27.9063 136.28 27.8452L134.762 29.1468C135.285 29.7577 136.015 30 136.781 30V28ZM136.302 27.8713C136.154 27.6865 136.089 27.4982 136.089 27.272H134.089C134.089 27.9578 134.312 28.5855 134.74 29.1207L136.302 27.8713ZM136.089 27.272C136.089 27.0084 136.163 26.7869 136.321 26.576L134.721 25.376C134.303 25.9331 134.089 26.5756 134.089 27.272H136.089ZM136.321 26.576L145.393 14.48L143.793 13.28L134.721 25.376L136.321 26.576ZM145.257 14.6274L146.877 13.1874L145.549 11.6926L143.929 13.1326L145.257 14.6274ZM147.012 13.0408L155.292 2.02483L153.694 0.823163L145.414 11.8392L147.012 13.0408ZM155.224 2.10632C155.347 1.97453 155.513 1.884 155.825 1.884V-0.116001C155.033 -0.116001 154.311 0.153467 153.762 0.74168L155.224 2.10632ZM155.825 1.884C156.107 1.884 156.215 1.96166 156.278 2.03028L157.748 0.673719C157.235 0.118338 156.551 -0.116001 155.825 -0.116001V1.884ZM156.278 2.03028C156.396 2.15745 156.47 2.31461 156.482 2.55656L158.48 2.45144C158.444 1.78138 158.206 1.17055 157.748 0.673719L156.278 2.03028ZM156.482 2.55656C156.494 2.76861 156.439 3.00285 156.253 3.2813L157.917 4.3907C158.307 3.80515 158.517 3.15139 158.48 2.45144L156.482 2.55656ZM156.285 3.236L147.537 14.9L149.137 16.1L157.885 4.436L156.285 3.236ZM147.675 14.7507L146.127 16.1187L147.451 17.6173L148.999 16.2493L147.675 14.7507ZM145.99 16.2672L137.278 27.8592L138.876 29.0608L147.588 17.4688L145.99 16.2672ZM137.37 27.7529C137.195 27.9275 137.017 28 136.781 28V30C137.553 30 138.239 29.7125 138.784 29.1671L137.37 27.7529ZM155.609 28C155.399 28 155.253 27.9676 155.152 27.9275L154.41 29.7845C154.789 29.9364 155.196 30 155.609 30V28ZM155.267 27.9818C155.188 27.9384 155.08 27.8537 154.95 27.6913L153.388 28.9407C153.642 29.2583 153.942 29.5336 154.295 29.7302L155.267 27.9818ZM154.98 27.731L146.592 16.103L144.97 17.273L153.358 28.901L154.98 27.731ZM146.423 15.9215L145.091 14.8055L143.807 16.3385L145.139 17.4545L146.423 15.9215ZM145.26 14.9872L136.8 3.25123L135.178 4.42076L143.638 16.1568L145.26 14.9872ZM136.789 3.236C136.645 3.04351 136.603 2.873 136.624 2.68068L134.635 2.47131C134.559 3.191 134.757 3.86049 135.189 4.436L136.789 3.236ZM136.624 2.68068C136.651 2.41862 136.741 2.21502 136.892 2.03879L135.374 0.737208C134.949 1.23298 134.703 1.82137 134.635 2.47131L136.624 2.68068ZM136.866 2.06845C136.969 1.95766 137.1 1.884 137.357 1.884V-0.116001C136.606 -0.116001 135.921 0.146341 135.4 0.707548L136.866 2.06845ZM137.357 1.884C137.798 1.884 137.875 2.00485 137.883 2.01536L139.495 0.832635C138.975 0.123149 138.164 -0.116001 137.357 -0.116001V1.884ZM137.878 2.00872L145.87 13.0967L147.492 11.9273L139.5 0.839278L137.878 2.00872ZM146.049 13.2869L147.417 14.4029L148.681 12.8531L147.313 11.7371L146.049 13.2869ZM147.238 14.2124L156.13 26.5604L157.753 25.3916L148.861 13.0436L147.238 14.2124ZM156.141 26.576C156.289 26.7729 156.351 26.9749 156.338 27.2221L158.336 27.3219C158.371 26.6091 158.169 25.9471 157.741 25.376L156.141 26.576ZM156.338 27.2221C156.325 27.4794 156.244 27.6607 156.1 27.8155L157.566 29.1765C158.046 28.6593 158.301 28.0246 158.336 27.3219L156.338 27.2221ZM156.074 27.8452C156.013 27.9165 155.907 28 155.609 28V30C156.367 30 157.077 29.7475 157.592 29.1468L156.074 27.8452Z" fill="black" mask="url(#path-1-outside-1_27_763)"/>
</g>
<defs>
<filter id="filter0_d_27_763" x="0.87207" y="0.523926" width="160.645" height="36.8362" filterUnits="userSpaceOnUse" color-interpolation-filters="sRGB">
<feFlood flood-opacity="0" result="BackgroundImageFix"/>
<feColorMatrix in="SourceAlpha" type="matrix" values="0 0 0 0 0 0 0 0 0 0 0 0 0 0 0 0 0 0 127 0" result="hardAlpha"/>
<feOffset dy="4"/>
<feGaussianBlur stdDeviation="2"/>
<feComposite in2="hardAlpha" operator="out"/>
<feColorMatrix type="matrix" values="0 0 0 0 0 0 0 0 0 0 0 0 0 0 0 0 0 0 0.25 0"/>
<feBlend mode="normal" in2="BackgroundImageFix" result="effect1_dropShadow_27_763"/>
<feBlend mode="normal" in="SourceGraphic" in2="effect1_dropShadow_27_763" result="shape"/>
</filter>
</defs>
</svg>
